<svg width="56" height="56" viewBox="0 0 56 56" fill="none" xmlns="http://www.w3.org/2000/svg">
<rect width="56" height="56" rx="8" fill="#F2F4F7"/>
<rect width="40" height="40" transform="translate(8 8)" fill="#F2F4F7"/>
<g opacity="0.48">
<path fill-rule="evenodd" clip-rule="evenodd" d="M24 22C22.3431 22 21 23.3431 21 25C21 26.6569 22.3431 28 24 28C25.6569 28 27 26.6569 27 25C27 23.3431 25.6569 22 24 22Z" fill="#98A2B3"/>
<path fill-rule="evenodd" clip-rule="evenodd" d="M33.2413 18H22.7587C21.9537 18 21.2894 18 20.7482 18.0442C20.1861 18.0901 19.6694 18.1887 19.184 18.436C18.4314 18.8195 17.8195 19.4314 17.436 20.184C17.1887 20.6694 17.0901 21.1861 17.0442 21.7482C17 22.2894 17 22.9537 17 23.7587V32.2413C17 33.0463 17 33.7106 17.0442 34.2518C17.0901 34.8139 17.1887 35.3306 17.436 35.816C17.8195 36.5686 18.4314 37.1805 19.184 37.564C19.6694 37.8113 20.1861 37.9099 20.7482 37.9558C20.8669 37.9655 20.9915 37.9731 21.1222 37.979C21.1298 37.9797 21.1371 37.9804 21.1441 37.981C21.3581 37.9999 21.6238 37.9999 21.8942 37.9999L22.4005 37.9998C22.5167 38 22.636 38 22.7587 38H33.2413C33.363 38 33.4815 38 33.5968 37.9999H34.1059C34.3763 37.9999 34.6421 37.9999 34.856 37.981C34.8631 37.9803 34.8704 37.9797 34.878 37.979C35.0087 37.9731 35.1332 37.9655 35.2518 37.9558C35.8139 37.9099 36.3306 37.8113 36.816 37.564C37.5686 37.1805 38.1805 36.5686 38.564 35.816C38.8113 35.3306 38.9099 34.8139 38.9558 34.2518C39 33.7106 39 33.0463 39 32.2413V31.0008V30.9989V23.7587C39 22.9537 39 22.2894 38.9558 21.7482C38.9099 21.1861 38.8113 20.6694 38.564 20.184C38.1805 19.4314 37.5686 18.8195 36.816 18.436C36.3306 18.1887 35.8139 18.0901 35.2518 18.0442C34.7106 18 34.0463 18 33.2413 18ZM37 28.5856V23.8C37 22.9434 36.9992 22.3611 36.9624 21.911C36.9266 21.4726 36.8617 21.2484 36.782 21.092C36.5903 20.7157 36.2843 20.4097 35.908 20.218C35.7516 20.1383 35.5274 20.0734 35.089 20.0376C34.6389 20.0008 34.0566 20 33.2 20H22.8C21.9434 20 21.3611 20.0008 20.911 20.0376C20.4726 20.0734 20.2484 20.1383 20.092 20.218C19.7157 20.4097 19.4097 20.7157 19.218 21.092C19.1383 21.2484 19.0734 21.4726 19.0376 21.911C19.0008 22.3611 19 22.9434 19 23.8V32.2C19 33.0566 19.0008 33.6389 19.0376 34.089C19.0734 34.5274 19.1383 34.7516 19.218 34.908C19.3862 35.2382 19.6424 35.5142 19.9569 35.7065C20.0152 35.6184 20.0726 35.548 20.1152 35.4971C20.2531 35.3324 20.4411 35.1446 20.6323 34.9534L26.1841 29.4016C26.3626 29.2231 26.5364 29.0493 26.6956 28.9141C26.8704 28.7657 27.0923 28.6061 27.382 28.5119C27.7837 28.3814 28.2164 28.3814 28.6181 28.5119C28.9078 28.6061 29.1297 28.7657 29.3045 28.9141C29.4638 29.0492 29.6375 29.2231 29.816 29.4015L30 29.5856L32.1841 27.4016C32.3625 27.2231 32.5363 27.0493 32.6955 26.9141C32.8704 26.7657 33.0922 26.6061 33.382 26.5119C33.7837 26.3814 34.2163 26.3814 34.618 26.5119C34.9077 26.6061 35.1296 26.7657 35.3045 26.9141C35.4637 27.0493 35.6375 27.2231 35.8159 27.4016L37 28.5856Z" fill="#98A2B3"/>
</g>
</svg>
