<svg width="419" height="161" viewBox="0 0 419 161" fill="none" xmlns="http://www.w3.org/2000/svg">
<g clip-path="url(#clip0_8_2)">
<path d="M33.1719 64.9453C14.1914 64.9453 0 51.7148 0 32.3828C0 12.6172 14.625 -0.00390625 33.4336 -0.00390625C42.0508 -0.00390625 51.3672 3.12891 56.5078 9.05078L46.4062 19.1484C43.6211 15.3203 38.6562 13.4922 33.957 13.4922C23.5938 13.4922 16.1953 21.5 16.1953 32.3828C16.1953 43.6133 23.4219 51.2773 33.6953 51.2773C39.5273 51.2773 44.1445 48.6641 46.7539 45.0078L57.1133 54.7578C51.7188 61.0273 43.5312 64.9453 33.1719 64.9453Z" fill="#00CC60"/>
<path d="M59.9883 63.293V13.2578C59.9883 6.84766 65.1875 1.64844 71.5977 1.64844H101.434V14.2734H74.3555V25.8555H99.9531V37.7812H74.3555V50.5781H103V63.293" fill="#00CC60"/>
<path d="M109.359 63.293V1.64844H124.332V50.3203H148.188V63.293" fill="#00CC60"/>
<path d="M151.672 63.293V13.2578C151.672 6.84766 156.871 1.64844 163.281 1.64844H193.113V14.2734H166.039V25.8555H191.637V37.7812H166.039V50.582H194.684V63.293" fill="#00CC60"/>
<path d="M238.656 12.3398C236.148 14.9883 232.207 15.6172 228.949 13.9727C226.906 12.9453 224.66 12.3594 222.633 12.3594C218.801 12.3594 214.012 13.6641 214.012 18.5391C214.012 22.6328 217.672 23.9375 223.504 25.7656C231.863 28.4648 242.656 32.0352 242.656 44.3125C242.656 58.5039 231.254 64.8594 219.062 64.8594C210.27 64.8594 201.391 61.6367 195.992 55.9766L200.805 51.082C203.289 48.5508 207.18 48.0703 210.215 49.9141C212.922 51.5547 216.105 52.582 219.062 52.582C223.59 52.582 227.594 50.8398 227.594 45.8789C227.594 41.1797 222.895 39.6953 214.797 37.0859C206.961 34.5625 199.039 30.5547 199.039 19.4102C199.039 5.74219 211.402 0.0820312 222.895 0.0820312C229.859 0.0820312 237.695 2.69531 243.094 7.65625" fill="#00CC60"/>
<path d="M274.266 14.3594V63.293H259.379V14.3594H244.867V1.64844H288.777V14.3594" fill="#00CC60"/>
<path d="M344.441 18.1055L336.605 39.2617H352.102L344.441 18.1055ZM360.984 63.293L356.195 51.1914L336.605 39.2617L327.812 63.293H311.617L334.688 8.30078C336.379 4.26953 340.32 1.64844 344.688 1.64844C349.07 1.64844 353.023 4.28906 354.703 8.33594L377.527 63.293" fill="#00CC60"/>
<path d="M379.184 63.293V1.64844H394.156V50.3203H418.016V63.293" fill="#00CC60"/>
<path d="M294.988 14.4766H309.961V1.64844H294.988V14.4766Z" fill="#00CC60"/>
<path d="M294.988 63.293H309.961V22.0547H294.988V63.293Z" fill="#00CC60"/>
<path d="M149.27 159.211H142.789L141.891 157.77C139.969 159.328 137.598 160.109 134.781 160.109C131.238 160.109 128.434 158.926 126.363 156.555C124.293 154.188 123.258 150.961 123.258 146.879V99.5391C123.258 95.8789 124.488 92.7617 126.949 90.1797C129.41 87.6016 132.441 86.3086 136.039 86.3086C139.641 86.3086 142.668 87.6016 145.129 90.1797C147.59 92.7617 148.82 95.8789 148.82 99.5391V115.199H138.199V99.8086C138.199 99.2109 137.988 98.6992 137.57 98.2812C137.148 97.8594 136.641 97.6484 136.039 97.6484C135.438 97.6484 134.93 97.8594 134.508 98.2812C134.09 98.6992 133.879 99.2109 133.879 99.8086V147.508C133.879 148.109 134.09 148.621 134.508 149.039C134.93 149.461 135.438 149.668 136.039 149.668C136.641 149.668 137.148 149.461 137.57 149.039C137.988 148.621 138.199 148.109 138.199 147.508V133.559H136.039V124.02H149.27" fill="#333333"/>
<path d="M175.277 116.281V101.07C175.277 99.1484 174.648 98.1914 173.391 98.1914H171.77V119.16H173.391C174.648 119.16 175.277 118.199 175.277 116.281ZM187.789 159.211H176.898C176 155.73 175.551 152.008 175.551 148.051V132.031C175.551 130.109 174.77 129.148 173.211 129.148H171.77V159.211H160.699V87.2109H174.289C177.406 87.2109 180.168 88.2148 182.57 90.2227C184.969 92.2344 186.168 95.3086 186.168 99.4492V116.91C186.168 119.789 184.578 122.281 181.398 124.379C184.699 126.539 186.348 129.031 186.348 131.848V147.148C186.348 150.512 186.828 154.531 187.789 159.211Z" fill="#333333"/>
<path d="M212.629 146.609V99.8086C212.629 99.2109 212.418 98.6992 211.996 98.2812C211.578 97.8594 211.066 97.6484 210.469 97.6484C209.867 97.6484 209.355 97.8594 208.938 98.2812C208.52 98.6992 208.309 99.2109 208.309 99.8086V146.609C208.309 147.211 208.52 147.719 208.938 148.141C209.355 148.559 209.867 148.77 210.469 148.77C211.066 148.77 211.578 148.559 211.996 148.141C212.418 147.719 212.629 147.211 212.629 146.609ZM223.699 99.5391V146.879C223.699 150.539 222.406 153.66 219.828 156.238C217.246 158.82 214.129 160.109 210.469 160.109C206.809 160.109 203.688 158.82 201.105 156.238C198.527 153.66 197.238 150.539 197.238 146.879V99.5391C197.238 95.8828 198.527 92.7617 201.105 90.1797C203.688 87.6016 206.809 86.3086 210.469 86.3086C214.129 86.3086 217.246 87.6016 219.828 90.1797C222.406 92.7617 223.699 95.8828 223.699 99.5391Z" fill="#333333"/>
<path d="M260.328 87.2109V146.879C260.328 150.602 259.172 153.734 256.863 156.285C254.555 158.836 251.598 160.109 247.996 160.109C244.398 160.109 241.367 158.82 238.906 156.238C236.445 153.66 235.219 150.539 235.219 146.879V87.2109H245.84V146.609C245.84 147.211 246.047 147.723 246.469 148.141C246.887 148.562 247.398 148.77 247.996 148.77C248.656 148.77 249.184 148.562 249.574 148.141C249.961 147.723 250.156 147.211 250.156 146.609V87.2109" fill="#333333"/>
<path d="M286.785 116.281V101.07C286.785 99.1484 286.156 98.1914 284.898 98.1914H283.277V119.16H284.898C286.156 119.16 286.785 118.199 286.785 116.281ZM297.68 99.4492V117.809C297.68 121.949 296.477 125.023 294.078 127.035C291.676 129.047 288.914 130.051 285.797 130.051H283.277V159.211H272.207V87.2109H285.797C288.914 87.2109 291.676 88.2148 294.078 90.2227C296.477 92.2344 297.68 95.3086 297.68 99.4492Z" fill="#333333"/>
</g>
<defs>
<clipPath id="clip0_8_2">
<rect width="418.01" height="160.11" fill="white"/>
</clipPath>
</defs>
</svg>
