<?xml version="1.0" encoding="UTF-8" standalone="no"?>
<!-- Created with Inkscape (http://www.inkscape.org/) -->

<svg
   version="1.1"
   id="svg2"
   width="514.6"
   height="168.4"
   viewBox="0 0 514.62665 168.42667"
   sodipodi:docname="unicef-seeklogo.eps"
   xmlns:inkscape="http://www.inkscape.org/namespaces/inkscape"
   xmlns:sodipodi="http://sodipodi.sourceforge.net/DTD/sodipodi-0.dtd"
   xmlns="http://www.w3.org/2000/svg"
   xmlns:svg="http://www.w3.org/2000/svg">
  <defs
     id="defs6">
    <clipPath
       clipPathUnits="userSpaceOnUse"
       id="clipPath18">
      <path
         d="M 0 3 V 1263 H 3860 V 3 Z"
         id="path16" />
    </clipPath>
  </defs>
  <sodipodi:namedview
     id="namedview4"
     pagecolor="#1cabe2"
     bordercolor="#000000"
     borderopacity="0.25"
     inkscape:showpageshadow="2"
     inkscape:pageopacity="0.0"
     inkscape:pagecheckerboard="0"
     inkscape:deskcolor="#d1d1d1" />
  <g
     id="g8"
     inkscape:groupmode="layer"
     inkscape:label="ink_ext_XXXXXX"
     transform="matrix(1.3,0,0,-1.3,0,168.4)">
    <g
       id="g10"
       transform="scale(0.1)">
      <g
         id="g12">
        <g
           id="g14"
           clip-path="url(#clipPath18)">
          <path
             d="M 0 7.7 H 3859.7 V 1270.9 H 0 Z"
             style="fill: #ffffff; fill-rule: nonzero; stroke: none; fill-opacity: 1"
             id="path20" />
          <path
             d="M 3396.3 376.3 c 0 0 10.1 3.9 25.5 17.7 c 15.4 13.6 17.9 31.5 31.7 48.9 c 15.3 19.3 48 49.4 48 49.4 c 0 0 -9.9 -41.6 -19.4 -61 c -13.8 -28.2 -29 -36.9 -29 -36.9 c 0 0 7.6 -5.3 17.8 -0.7 c 10.2 4.5 21 10.1 36.4 8.5 c 15.4 -1.8 34.5 -2.2 53.8 9.1 c 19.3 11.4 36.4 22.5 36.4 22.5 c 0 0 -12.1 -37 -60.3 -57.6 c -31 -13.3 -67.4 -13 -78.8 -6.8 c -11.4 6.2 -25 9.2 -34.6 6.4 c -9.7 -2.9 -27.5 0.5 -27.5 0.5"
             style="fill: #00adef; fill-rule: nonzero; stroke: none; fill-opacity: 1"
             id="path22" />
          <path
             d="M 3552.1 573.7 c 0 0 0.3 -35.8 2.6 -48.3 c 2.3 -12.4 -0.4 -27.9 -5.6 -39.8 c -5.1 -12 -13.8 -29 -7.5 -32.4 c 6.4 -3.4 8.5 10.2 22.2 20 c 13.6 9.7 38.5 22.4 52 30.5 c 21.8 13.2 38.4 37.7 38.4 37.7 c 0 0 -9.6 -55.8 -56.5 -88.1 c -30.9 -21.4 -92.5 -26.8 -92.5 -26.8 c 0 0 6.5 5.8 9.9 20.6 c 3.4 14.7 5 46 11.2 65.9 c 6.2 19.9 25.8 60.8 25.8 60.8"
             style="fill: #00adef; fill-rule: nonzero; stroke: none; fill-opacity: 1"
             id="path24" />
          <path
             d="M 3577.4 654.7 c 0 0 17.7 -44.6 20 -57 c 2.2 -12.5 -1.3 -49.8 -1.3 -49.8 c 0 0 14.6 13.2 28.9 35.7 c 11.2 17.7 27.2 23.9 36.4 38.2 c 9 14.2 12.6 19.9 12.6 19.9 c 0 0 -8.9 -39.5 -18.9 -62.6 c -16.5 -38.5 -82.4 -79.2 -82.4 -79.2 c 0 0 3.5 11.3 5.2 33.4 c 1.7 22.1 -3.9 47.9 -5.5 64.4 c -1.5 15.8 5.1 56.9 5.1 56.9"
             style="fill: #00adef; fill-rule: nonzero; stroke: none; fill-opacity: 1"
             id="path26" />
          <path
             d="M 3576.3 745.9 c 0 0 5.2 -6.2 15.9 -23.3 c 10.8 -17 25 -35.2 25.6 -45.5 c 0.6 -10.2 5.7 -22.8 9.1 -22.2 c 3.4 0.6 3.4 12.2 8.5 29.9 c 5.1 17.6 20.3 35 22.8 48 c 2 10.6 6.2 25.6 6.2 25.6 c 0 0 8 -44.9 -1.6 -81.3 c -9.7 -36.4 -31.2 -53.9 -34.6 -58.6 c -3.5 -4.5 -9.8 -10.8 -9.8 -10.8 c 0 0 3.4 -3.3 -6.8 19.4 c -10.2 22.8 -17.3 36.8 -26.3 53.6 c -6.9 12.8 -9 65.2 -9 65.2"
             style="fill: #00adef; fill-rule: nonzero; stroke: none; fill-opacity: 1"
             id="path28" />
          <path
             d="M 3553.5 821.1 c 0 0 24.8 -14.3 36.1 -26.6 c 12.7 -13.8 27 -39.5 31.6 -38.4 c 4.6 1.2 -0.3 22.8 0.9 31.3 c 1.2 8.5 4.5 46.9 2.8 57.1 c -1.7 10.2 -4.8 24.7 -4.8 24.7 c 0 0 28.3 -41.4 27.7 -70.9 c -0.5 -29.6 0.9 -36.1 -12.4 -59.2 c -7 -12.2 -11.4 -29 -11.4 -29 c 0 0 -4.1 8.7 -13.8 20.6 c -9.7 12 -30.5 32.5 -38 50.7 c -7.5 18.2 -18.6 39.6 -18.6 39.6"
             style="fill: #00adef; fill-rule: nonzero; stroke: none; fill-opacity: 1"
             id="path30" />
          <path
             d="M 3516 893.4 c 0 0 7.1 -6.5 18.4 -14.4 c 11.4 -8 25.7 -13.4 33.7 -21.3 c 7.9 -7.9 17.9 -17.2 21.9 -14.9 c 3.9 2.2 -1.1 9.4 -7.3 26.5 c -6.3 17.1 -6.4 34 -11.4 41.4 c -5 7.3 -9.7 21.9 -9.7 21.9 c 0 0 31.2 -24.3 37 -44.2 c 5.7 -19.8 5 -82.5 5 -82.5 c 0 0 -5.6 7.9 -16.4 15.9 c -10.8 7.9 -38 27.6 -47.2 34.9 c -16.8 12.9 -23.9 36.8 -23.9 36.8"
             style="fill: #00adef; fill-rule: nonzero; stroke: none; fill-opacity: 1"
             id="path32" />
          <path
             d="M 3490.7 960.2 c 0 0 25.1 -6.8 41 -20.4 c 15.9 -13.7 29 -51.3 29 -51.3 c 0 0 -26.3 13.2 -37 23.4 c -10.8 10.2 -33 48.2 -33 48.2"
             style="fill: #00adef; fill-rule: nonzero; stroke: none; fill-opacity: 1"
             id="path34" />
          <path
             d="M 3007.1 355.8 c 0 0 28.8 -14.9 51 -13.2 c 22.2 1.7 42.8 9 79.5 18.6 c 36.8 9.4 64.7 11.5 81.2 8.6 c 16.4 -2.8 45.3 -6.6 45.3 -6.6 c 0 0 37.5 5.8 66.7 7.4 c 14.8 0.9 34.5 -3.5 56.4 -10.3 c 21.2 -6.7 59.8 -19 81.2 -19.3 c 31.7 -0.4 55.6 12 55.6 12 c 0 0 -3.1 -23.2 -79.1 -30.5 c -45.2 -4.2 -63.8 -0.8 -83.6 11.9 c -19.8 12.8 -41.7 23.4 -51.5 23.8 c -9.9 0.5 -24.8 -0.8 -24.8 -0.8 c 0 0 27.3 -9.9 40.8 -20.6 c 13.5 -10.7 48.6 -39.5 48.6 -39.5 l -8.7 -9.9 c 0 0 -13.5 19.8 -35.8 35.9 c -22.3 16 -53.4 32.1 -65 32.1 c -11.5 0 -49.4 -17.3 -73.7 -39.9 c -23.3 -21.8 -26 -27.2 -26 -27.2 l -9.1 9.1 c 0 0 17.8 17.7 41.6 33.3 c 23.8 15.7 49 28.1 49 28.1 c 0 0 -0.8 2.5 -15.2 1.2 c -14.4 -1.2 -25.9 -2.9 -50.6 -18.1 c -24.8 -15.2 -34.3 -18.9 -55.6 -21.3 c -20.9 -2.5 -62.6 1.6 -87.7 12.3 c -25.1 10.7 -30.4 23 -30.4 23"
             style="fill: #00adef; fill-rule: nonzero; stroke: none; fill-opacity: 1"
             id="path36" />
          <path
             d="M 2930.9 437.3 c 0 0 23 -18.2 33.7 -24.3 c 24 -13.6 45 -7.4 60.1 -9.5 c 15.3 -2.1 28.9 -5.7 33.4 -7.9 c 4.6 -2.1 18.1 -3.3 19.4 -0.9 c 1.4 2.9 -12.3 8.6 -22.7 26.8 c -15.1 26.7 -23.9 70.4 -23.9 70.4 c 0 0 22.6 -16 43.2 -43.2 c 20.6 -27.2 17.8 -40.6 32.2 -52.7 c 15.2 -12.7 29.3 -19.7 29.3 -19.7 c 0 0 -18.9 2 -32.4 0.8 c -13.6 -1.2 -36.4 -10.5 -57.3 -10.1 c -20 0.4 -58.5 2.1 -90.7 37.9 c -21.4 23.8 -24.4 32.5 -24.4 32.5"
             style="fill: #00adef; fill-rule: nonzero; stroke: none; fill-opacity: 1"
             id="path38" />
          <path
             d="M 2873.2 539.4 c 0 0 13.6 -18.1 33.5 -34.1 c 19.8 -16 49.8 -25.5 60.1 -37.1 c 10.3 -11.6 14.7 -21 20.5 -18.2 c 5.8 2.9 -3.5 12.9 -7.3 28 c -3.8 15.3 -7 56 -3.8 71.7 c 1.8 8.2 0.9 20.6 0.9 20.6 c 0 0 9.1 -15.5 19.8 -39.5 c 9.8 -22.2 9.1 -60.5 13.5 -77.5 c 4.5 -17.8 14 -29.5 14 -29.5 c 0 0 -30.5 1.6 -45.7 7.3 c -15.2 5.8 -58 21.4 -74.1 47.8 c -16 26.3 -31.4 60.5 -31.4 60.5"
             style="fill: #00adef; fill-rule: nonzero; stroke: none; fill-opacity: 1"
             id="path40" />
          <path
             d="M 2854.5 641.2 c 0 0 6.2 -15.8 16 -25.2 c 9.9 -9.4 16 -14 27.6 -27.5 c 8.1 -9.5 27.3 -46.3 33.4 -45.3 c 4.9 0.8 -2.5 19.8 -0.5 38.3 c 3.4 31.7 23.1 69.1 23.1 69.1 c 0 0 4.6 -38.9 3.3 -62.1 c -1.1 -23.1 -9.1 -49 -6.2 -62.2 c 2.8 -13.2 4.5 -29.6 4.5 -29.6 c 0 0 -30.1 20.1 -51.5 39.4 c -21.3 19.5 -40.7 61.8 -44.4 75 c -3.7 13.1 -5.3 30.1 -5.3 30.1"
             style="fill: #00adef; fill-rule: nonzero; stroke: none; fill-opacity: 1"
             id="path42" />
          <path
             d="M 2862.6 756.4 c 0 0 -3.9 -57.1 3.4 -83.2 c 11.4 -41.9 43.6 -68.8 43.6 -68.8 c 0 0 2.8 14.4 9.9 29.3 c 7 14.8 18.2 29.5 22.6 41.5 c 8.7 23.6 10.7 65.5 10.7 65.5 c 0 0 -7.8 -11.8 -14.8 -21.4 c -7 -9.5 -15.6 -20.9 -22.3 -36.6 c -6.6 -15.7 -7.4 -30.2 -14.8 -30.9 c -10.4 -0.9 -1.6 14 -10.3 34.2 c -8.6 20.2 -21 40.8 -22.3 50.6 c -1.2 9.9 -5.8 19.8 -5.8 19.8"
             style="fill: #00adef; fill-rule: nonzero; stroke: none; fill-opacity: 1"
             id="path44" />
          <path
             d="M 2907.7 866.9 c 0 0 -22.7 -30.9 -26 -59.2 c -3.2 -28.5 -1.1 -51.3 9.9 -70.1 c 7.4 -12.8 9.8 -31.7 9.8 -31.7 c 0 0 3.8 9.8 13.2 20.2 c 9.4 10.3 25.9 25 37.4 44.8 c 11.6 19.8 21.9 45.8 21.9 45.8 c 0 0 -18.5 -10.4 -28.9 -19.9 c -26.1 -23.6 -38.8 -46.1 -38.8 -46.1 c 0 0 -7.3 6.6 -4.9 16.1 c 2.6 9.5 3.8 24 3 34.6 c -0.9 10.6 -4.2 16.8 -2.3 30 c 2.3 13.2 5.5 35.4 5.5 35.4"
             style="fill: #00adef; fill-rule: nonzero; stroke: none; fill-opacity: 1"
             id="path46" />
          <path
             d="M 2969.4 930.9 c 0 0 -30.4 -18.5 -38.7 -41.6 c -6.2 -17.6 -3.7 -36.2 -6.6 -54.8 c -2.8 -18.5 0.8 -31.3 0.8 -31.3 c 0 0 2.4 4.6 13.3 16 c 10.7 11.5 27.6 18.5 39.4 26.9 c 25.6 17.7 37.1 46.5 37.1 46.5 c 0 0 -14.9 -13.6 -22.3 -17.8 c -7.3 -4.1 -21.3 -10.7 -31.5 -18.1 c -7.5 -5.2 -13.6 -20.8 -13.6 -20.8 c 0 0 -9.6 8.9 -6.3 18.8 c 3.3 9.9 8.2 17.3 10.2 27.2 c 2.1 9.9 5 24.3 9.1 31.7 c 4 6.9 9 17.3 9 17.3"
             style="fill: #00adef; fill-rule: nonzero; stroke: none; fill-opacity: 1"
             id="path48" />
          <path
             d="M 2991.5 932.4 c 12.4 11.9 46.9 24.6 46.9 24.6 c 0 0 -14.8 -24.8 -30.9 -41.2 c -18.6 -19.1 -42 -30.4 -42 -30.4 c 0 0 4.6 26.4 26 47"
             style="fill: #00adef; fill-rule: nonzero; stroke: none; fill-opacity: 1"
             id="path50" />
          <path
             d="M 3153 891.6 c 31.9 0 95.9 -34.4 95.9 -80.4 c 0 -28.8 -22.3 -48.2 -22.3 -48.2 c 0 0 0.9 -16 -1.3 -20.9 c -4.2 -9.3 -8.4 -6.5 -13.9 -14.9 c -5.6 -8.3 -7.8 -21.3 -31.1 -21.3 c -23.3 0 -22.8 7.4 -33.9 7.4 c -11.1 0 -18.5 -10.7 -18.5 -10.7 v -83.1 c 0 0 2.3 -10.6 23.2 -21.7 c 20.8 -11.2 37.2 -18.1 43.6 -18.1 c 6.4 0 6.4 7.4 14.3 7.4 c 7.9 0 39.9 0 39.9 -14.9 c 0 -14.8 -15.8 -25 -73.3 -25 c -57.5 0 -75.1 4.6 -81.6 4.6 c -6.5 0 -7.4 -1.4 -7.4 -10.2 c 0 -8.8 -0.4 -21.3 -0.4 -21.3 c 0 0 9.7 -15.3 21.3 -21.4 c 11.6 -6 18.1 -9.3 31.1 -9.3 c 13 0 32.4 4.2 48.2 11.2 c 15.8 6.9 31 11.1 49.2 11.1 c 18.1 0 50 4.2 50 22.7 c 0 18.6 -6.9 25.1 -6.9 39.4 c 0 14.4 2.3 27 -4.6 33.9 c -6.9 6.9 -37.6 29.1 -37.6 41.7 c 0 12.5 11.2 18.1 12.6 25 c 1.4 7 0.4 11.1 5.1 12.5 c 4.6 1.4 8.3 3.3 8.3 3.3 l 2.3 11.6 c 0 0 6.1 2.8 9.3 5.6 c 3.2 2.7 6 4.6 6 4.6 c 0 0 -2.7 8.8 2.4 14.4 c 5.1 5.5 12.1 4.2 17.2 4.2 c 5.1 0 20.8 1.8 20.8 1.8 c 0 0 5.1 9.1 10.8 13.4 c 9.3 7 34.7 10.7 41.2 15.8 c 6.5 5.1 13.4 17.6 30.6 17.6 c 70.4 0 117.7 -63.6 117.7 -97.8 c 0 -59.3 -38.5 -131.2 -92.2 -131.2 c -42.2 0 -39.4 -12.5 -39.4 -26.4 c 0 -32.5 31.6 -38.5 31.6 -38.5 c 0 0 -66.4 -50.1 -143.3 -50.1 c -73.2 0 -145.9 27 -198.3 84.7 c -36.1 39.6 -63.5 92.3 -63.5 164.6 c 0 28.4 0.1 33.2 0.1 33.2 c 0 0 19.1 14.9 30.8 20.9 c 11.7 5.9 37.5 20.9 37.5 33.4 c 0 12.3 -4.8 17.1 -4.8 43.3 c 0 12.1 3 34.1 14 49 c 12.9 17.4 35.4 27 59.7 27"
             style="fill: #00adef; fill-rule: nonzero; stroke: none; fill-opacity: 1"
             id="path52" />
          <path
             d="M 3266.9 967.9 c -154.7 0 -280.1 -125.4 -280.1 -280.1 c 0 -154.7 125.4 -280.1 280.1 -280.1 c 154.7 0 280.1 125.4 280.1 280.1 c 0 154.7 -125.4 280.1 -280.1 280.1 z m 209.1 -106.4 c 14.6 -17.2 21 -29.6 21 -29.6 c 0 0 -9.7 -9.9 -20.9 -15.2 c -11.2 -5.3 -32.2 -13.2 -32.2 -13.2 c 0 0 -7.7 23.9 -13.9 36.6 c -6.2 12.7 -12.6 27.7 -12.6 27.7 c 0 0 6.2 4.2 15.3 10.7 c 9.1 6.4 15.3 12.1 15.3 12.1 c 0 0 15.7 -14.5 27.9 -29 z m -92.5 72 c 0 0 19 -8.3 31.7 -17.8 c 12.7 -9.4 27.4 -20.9 27.4 -20.9 c 0 0 -2.3 -4 -9.3 -9.3 c -7.1 -5.4 -17.5 -10 -17.5 -10 c 0 0 -9.4 13.2 -17.3 23.3 c -7.9 10.1 -22.8 27.2 -22.8 27.2 c 0 0 3.3 3.2 5.1 5.3 c 1.8 2.1 2.7 2.3 2.7 2.3 z m -36.6 -58.4 c -3 13 -10.1 25 -10.1 25 c 0 0 11.6 5.7 19.3 10.6 c 7.7 5 13.9 10.1 13.9 10.1 c 0 0 13.3 -13.3 23 -25.4 c 9.6 -12.1 16.5 -23.7 16.5 -23.7 c 0 0 -12.4 -5.6 -26.5 -12 c -14.1 -6.5 -31.9 -9.1 -31.9 -9.1 c 0 0 -1.2 11.5 -4.1 24.5 z m 7.1 -95.6 c 0 0 -6.5 -1.8 -28.3 -2.7 c -21.8 -0.9 -41.1 0.4 -41.1 0.4 v 62 c 0 0 16.9 -1.1 29.3 -1.1 c 12.3 0 33.3 3.8 33.3 3.8 c 0 0 1.2 -9.7 3.8 -25.4 c 2.7 -15.6 3 -36.9 3 -36.9 z m 7 163.7 c 7.7 -2.1 16.7 -7.5 16.7 -7.5 l -8.1 -6.3 c 0 0 -5.9 5.3 -10.9 10.4 c -5.8 5.8 -17.6 9.3 -17.6 9.3 c 0 0 12.2 -3.8 19.9 -5.9 z m -22.1 2.1 c 14.3 -7.8 25.1 -20.3 25.1 -20.3 c 0 0 -5.3 -3.5 -12.7 -8.9 c -7.3 -5.4 -17.8 -7.5 -17.8 -7.5 c 0 0 -6.5 15.5 -11.2 24.3 c -4.4 8.2 -18.8 23.6 -18.8 23.6 c 0 0 21.1 -3.5 35.3 -11.3 z m -55.6 12.9 c 0 0 15.3 4.1 29.3 -22.4 c 7.3 -13.7 13.9 -29.3 13.9 -29.3 c 0 0 -10.8 -3.3 -21.7 -4.5 c -10.9 -1.1 -21.5 0.6 -21.5 0.6 z m -0.1 -63.7 c 0 0 10.6 -0.9 22.7 0 c 12.2 0.8 23.9 3.4 23.9 3.4 c 0 0 4.2 -4.4 8.1 -22 c 3.5 -16 5.4 -27.4 5.4 -27.4 c 0 0 -12.9 -3.5 -31.1 -4.7 c -18.3 -1.2 -28.9 0.9 -28.9 0.9 z m -8.3 63.7 l 1 -56.5 c 0 0 -12.1 -1.1 -25.4 2.5 c -13.3 3.6 -19.4 7.5 -19.4 7.5 c 0 0 7.1 14.2 16.2 26.6 c 20.2 27.7 27.6 19.8 27.6 19.8 z m -17.1 1.4 c 0 0 -13 -12.2 -18.8 -23.4 c -5.8 -11.2 -13.6 -21.9 -13.6 -21.9 c 0 0 -10.1 4.3 -16.9 9.4 c -6.8 5 -10.5 8.6 -10.5 8.6 c 0 0 11.1 12.6 30.9 19.8 c 19.8 7.2 28.9 7.5 28.9 7.5 z m -52.6 -6.5 c 10.5 2.5 18.7 3.2 18.7 3.2 c 0 0 -11.5 -5.7 -18 -10.7 c -6.5 -5 -12.3 -8.7 -12.3 -8.7 c 0 0 -3.1 2.2 -4.7 4.7 c -1.4 2.5 -2.2 5.7 -2.2 5.7 c 0 0 7.9 3.2 18.4 5.7 z m 62.1 -537 c -137.6 0 -272.6 109.7 -272.6 271 c 0 202.2 183.8 257.7 183.8 257.7 l 11.2 -10.4 c 0 0 -9.8 -6.4 -17.7 -14.7 c -7.8 -8.3 -12.6 -15.5 -12.6 -15.5 l 4.7 -4.3 c 0 0 5.7 8.4 12.2 14.8 c 6.5 6.5 15.9 14 15.9 14 c 0 0 9.4 -9.7 15.5 -13.3 c 6.1 -3.6 14.7 -7.5 14.7 -7.5 c 0 0 -0.7 -4.7 -3.2 -10.5 c -2.5 -5.8 -5 -13.3 -5 -13.3 l 5.8 -3.2 c 0 0 4 11.1 6.1 15.5 c 2.2 4.3 4 8.6 4 8.6 c 0 0 13.7 -5.8 25.6 -8.3 c 11.9 -2.5 20.5 -2.2 20.5 -2.2 v -48.2 h -17.6 v -8.2 h 18.2 v -60.5 h -15.3 v -6.8 h 14.9 v -22.3 h 7.4 v 21.6 c 0 0 9.7 -0.4 34.9 0.7 c 25.2 1.1 41.4 3.6 41.4 3.6 c 0 0 -0.7 23 -2.9 39.9 c -2.2 16.9 -5.8 29.9 -5.8 29.9 c 0 0 14.3 1.8 30.2 8.3 c 15.9 6.5 29.5 12.6 29.5 12.6 c 0 0 8.4 -12.2 14.8 -29.5 c 6.4 -17.3 12.6 -34.8 12.6 -34.8 l -10.7 -4.7 l 1.8 -5.4 l 12.5 3.7 l 3.6 -7.5 l 4.8 2.1 l -3.5 7.6 c 0 0 14.8 4.4 29.6 12.4 c 14.8 8 25.6 15.5 25.6 15.5 c 0 0 37.1 -56.4 37.1 -136.5 c 0 -123.2 -95.2 -271.6 -271.5 -271.6"
             style="fill: #00adef; fill-rule: nonzero; stroke: none; fill-opacity: 1"
             id="path54" />
          <path
             d="M 567.2 310.7 v 70.7 l -1.9 1.9 c -34.4 -56.8 -76.3 -86.6 -154.5 -86.6 c -71.6 0 -158.2 34.4 -158.2 150.8 V 797.5 H 334.6 V 474.5 c 0 -80 41 -107 94 -107 c 103.3 0 134 91.2 134 161.9 v 268 h 81.9 V 310.7 h -77.2"
             style="fill: #00adef; fill-rule: nonzero; stroke: none; fill-opacity: 1"
             id="path56" />
          <path
             d="M 1163.8 310.7 h -81.9 V 610.4 c 0 84.7 -24.2 127.5 -104.3 127.5 c -46.5 0 -128.4 -29.7 -128.4 -161.9 V 310.7 h -81.9 v 486.8 h 77.2 v -68.9 h 1.8 c 17.7 26.1 63.3 82.9 147.1 82.9 c 75.3 0 170.3 -30.7 170.3 -169.4 V 310.7"
             style="fill: #00adef; fill-rule: nonzero; stroke: none; fill-opacity: 1"
             id="path58" />
          <path
             d="M 1286.7 885.9 v 93 h 81.9 v -93 z m 81.9 -575.2 h -81.9 v 486.8 h 81.9 V 310.7"
             style="fill: #00adef; fill-rule: nonzero; stroke: none; fill-opacity: 1"
             id="path60" />
          <path
             d="M 1795.8 633.7 c -10.2 65.1 -46.6 104.2 -115.4 104.2 c -101.5 0 -134 -96.7 -134 -183.3 c 0 -83.8 20.5 -187 133.1 -187 c 55 0 102.4 40.9 116.4 115.4 h 79.1 c -8.4 -77.3 -55.9 -186.1 -198.2 -186.1 c -136.8 0 -217.8 103.3 -217.8 243.8 c 0 150.8 72.6 270.8 233.6 270.8 c 127.5 0 175.9 -93.1 182.4 -177.8 h -79.1"
             style="fill: #00adef; fill-rule: nonzero; stroke: none; fill-opacity: 1"
             id="path62" />
          <path
             d="M 2370 463.4 c -2.8 -23.3 -25.1 -92.1 -86.5 -133.1 c -22.3 -14.9 -54 -33.5 -132.1 -33.5 c -136.8 0 -217.8 103.3 -217.8 243.8 c 0 150.8 72.6 270.8 233.6 270.8 c 140.5 0 209.4 -111.7 209.4 -283.9 h -355.5 c 0 -101.4 47.4 -160.1 141.4 -160.1 c 77.3 0 122.9 59.6 125.6 95.8 z m -78.2 129.4 c -4.7 75.3 -36.3 145.1 -135.9 145.1 c -75.4 0 -134.9 -69.8 -134.9 -145.1 h 270.8"
             style="fill: #00adef; fill-rule: nonzero; stroke: none; fill-opacity: 1"
             id="path64" />
          <path
             d="M 2575.7 729.6 v -418.8 h -81.9 v 418.8 h -67 v 67.9 h 67 v 83.8 c 0 73.5 46.5 107 126.6 107 c 12.1 0 24.2 -0.9 37.3 -1.8 V 912.9 c -10.3 1 -23.3 1.9 -33.5 1.9 c -35.3 0 -48.4 -17.7 -48.4 -56.8 v -60.5 h 81.9 v -67.9 h -81.9"
             style="fill: #00adef; fill-rule: nonzero; stroke: none; fill-opacity: 1"
             id="path66" />
        </g>
      </g>
    </g>
  </g>
</svg>
