<svg width="18" height="18" viewBox="0 0 18 18" fill="none" xmlns="http://www.w3.org/2000/svg">
<g opacity="0.75">
<path fill-rule="evenodd" clip-rule="evenodd" d="M1.52363 9C1.5234 8.89963 1.50369 8.79937 1.46449 8.7049L0.923408 7.39481C0.809096 7.11891 0.750048 6.82274 0.75 6.52409C0.749952 6.22528 0.808782 5.92939 0.923129 5.65332C1.03748 5.37725 1.2051 5.12642 1.41642 4.91516C1.62769 4.70395 1.87849 4.53644 2.1545 4.42217L3.46245 3.88038C3.65187 3.80206 3.80295 3.65165 3.88181 3.46244L4.42372 2.1541C4.65456 1.59679 5.09734 1.15399 5.65465 0.923141C6.21196 0.692286 6.83815 0.692286 7.39546 0.923141L8.7028 1.46468C8.8925 1.543 9.10576 1.5429 9.29534 1.46423L9.29682 1.46362L10.6053 0.923938C11.1624 0.693397 11.7888 0.693322 12.3458 0.924069C12.903 1.15488 13.3457 1.59754 13.5766 2.15471L14.1055 3.43164C14.1102 3.44172 14.1147 3.45194 14.119 3.46231C14.1974 3.65193 14.3478 3.80268 14.5372 3.88147L15.8459 4.42358C16.4033 4.65443 16.846 5.09722 17.0769 5.65454C17.3077 6.21185 17.3077 6.83805 17.0769 7.39536L16.5351 8.70336C16.4958 8.79836 16.4761 8.89957 16.4761 9.00023C16.4761 9.10089 16.4958 9.20164 16.5351 9.29664L17.0769 10.6046C17.3077 11.162 17.3077 11.7881 17.0769 12.3455C16.846 12.9028 16.4033 13.3456 15.8459 13.5764L14.5372 14.1185C14.3478 14.1973 14.1974 14.3481 14.119 14.5377C14.1147 14.5481 14.1102 14.5583 14.1055 14.5684L13.5766 15.8453C13.3457 16.4025 12.903 16.8451 12.3458 17.0759C11.7888 17.3067 11.1624 17.3066 10.6053 17.0761L9.29682 16.5364L9.29534 16.5358C9.10576 16.4571 8.8925 16.457 8.7028 16.5353L7.39546 17.0769C6.83815 17.3077 6.21196 17.3077 5.65465 17.0769C5.09734 16.846 4.65456 16.4032 4.42372 15.8459L3.88181 14.5376C3.80295 14.3484 3.65187 14.1979 3.46245 14.1196L2.1545 13.5778C1.87849 13.4636 1.62769 13.296 1.41642 13.0848C1.2051 12.8736 1.03748 12.6227 0.923129 12.3467C0.808782 12.0706 0.749952 11.7747 0.75 11.4759C0.750048 11.1773 0.809096 10.8811 0.923408 10.6052L1.46449 9.2951C1.50369 9.20063 1.5234 9.10037 1.52363 9ZM12.1553 7.65533C12.4482 7.36244 12.4482 6.88756 12.1553 6.59467C11.8624 6.30178 11.3876 6.30178 11.0947 6.59467L8.25 9.43934L7.28033 8.46967C6.98744 8.17678 6.51256 8.17678 6.21967 8.46967C5.92678 8.76256 5.92678 9.23744 6.21967 9.53033L7.71967 11.0303C8.01256 11.3232 8.48744 11.3232 8.78033 11.0303L12.1553 7.65533Z" fill="#00804B"/>
</g>
</svg>
